<svg width="1947" height="320" viewBox="0 0 1947 320" fill="none" xmlns="http://www.w3.org/2000/svg">
<g clip-path="url(#clip0_311_1125)">
<path d="M160 320C248.366 320 320 248.366 320 160C320 71.6344 248.366 0 160 0C71.6344 0 0 71.6344 0 160C0 248.366 71.6344 320 160 320Z" fill="#C9B3FF"/>
<path d="M199.867 251.951H105.412C101.679 251.972 97.9795 251.24 94.5356 249.798C91.0916 248.356 87.9739 246.234 85.3688 243.56C80.2342 238.302 77.3572 231.247 77.3516 223.898V83.6347C77.3542 80.0798 78.0725 76.5618 79.4636 73.2903C80.8181 70.0789 82.7605 67.1487 85.1909 64.6503C87.593 62.1576 90.45 60.1475 93.6076 58.7284C96.8055 57.283 100.274 56.5336 103.784 56.53C104.324 56.53 104.872 56.5486 105.411 56.5844H164.538C168.357 56.5633 172.144 57.2866 175.687 58.7137C179.017 60.0608 182.042 62.0631 184.583 64.6017L219.911 100.281C222.415 102.801 224.414 105.777 225.799 109.049C227.182 112.296 227.906 115.785 227.928 119.314V223.898C227.949 227.63 227.216 231.329 225.774 234.772C224.332 238.215 222.21 241.332 219.535 243.935C214.275 249.069 207.218 251.946 199.867 251.951ZM121.411 174.28C119.29 174.299 117.263 175.155 115.77 176.661C114.277 178.168 113.439 180.203 113.439 182.324C113.439 184.444 114.277 186.479 115.77 187.986C117.263 189.492 119.29 190.348 121.411 190.367H181.411C183.532 190.348 185.559 189.492 187.052 187.986C188.545 186.479 189.383 184.444 189.383 182.324C189.383 180.203 188.545 178.168 187.052 176.661C185.559 175.155 183.532 174.299 181.411 174.28H121.411ZM121.371 137.699C116.351 137.699 113.353 140.695 113.353 145.713C113.342 146.769 113.542 147.817 113.941 148.794C114.341 149.772 114.931 150.66 115.678 151.406C116.424 152.153 117.312 152.743 118.29 153.142C119.268 153.54 120.315 153.74 121.371 153.729H181.5C183.626 153.729 185.665 152.885 187.168 151.382C188.671 149.879 189.515 147.84 189.515 145.714C189.515 143.588 188.671 141.549 187.168 140.046C185.665 138.543 183.626 137.699 181.5 137.699H121.371ZM121.371 100.918C120.312 100.908 119.262 101.109 118.282 101.507C117.301 101.906 116.409 102.495 115.657 103.24C114.905 103.985 114.309 104.872 113.901 105.849C113.494 106.826 113.284 107.874 113.284 108.932C113.284 109.991 113.494 111.039 113.901 112.016C114.309 112.993 114.905 113.88 115.657 114.625C116.409 115.37 117.301 115.959 118.282 116.357C119.262 116.756 120.312 116.956 121.371 116.947H151.435C156.456 116.947 159.452 113.951 159.452 108.933C159.463 107.877 159.262 106.83 158.863 105.853C158.464 104.875 157.874 103.988 157.127 103.241C156.381 102.495 155.493 101.905 154.515 101.506C153.538 101.107 152.491 100.907 151.435 100.918H121.371Z" fill="white"/>
<path d="M77.3229 203.178C76.0001 212.4 76.7065 220.618 80.5043 224.527C134.806 280.42 225.784 225.123 240.44 172.606L234.367 171.966C233.796 171.906 233.251 171.693 232.79 171.35C232.33 171.007 231.97 170.546 231.749 170.015C231.528 169.485 231.453 168.905 231.534 168.336C231.614 167.767 231.846 167.23 232.205 166.782L252.084 142.003C252.42 141.585 252.855 141.257 253.349 141.051C253.844 140.845 254.382 140.766 254.915 140.822C255.448 140.878 255.958 141.067 256.399 141.372C256.84 141.676 257.198 142.087 257.439 142.565L271.73 170.937C271.988 171.45 272.104 172.024 272.064 172.597C272.025 173.17 271.832 173.723 271.505 174.195C271.178 174.668 270.73 175.045 270.208 175.284C269.686 175.524 269.109 175.619 268.537 175.559L262.006 174.872C251.097 209.956 232.608 236.857 209.6 254.603C179.848 277.551 137.873 284.803 103.6 266C71.4525 248.363 64.8001 227.6 77.3229 203.178Z" fill="#4A00FF"/>
</g>
<path d="M387.926 232V90.1818H437.415V117.142H438.892C441.477 107.17 445.571 99.8764 451.172 95.2599C456.835 90.6435 463.452 88.3352 471.023 88.3352C473.239 88.3352 475.424 88.5199 477.578 88.8892C479.794 89.197 481.918 89.6586 483.949 90.2741V133.761C481.425 132.9 478.317 132.253 474.624 131.822C470.931 131.392 467.761 131.176 465.114 131.176C460.128 131.176 455.635 132.315 451.634 134.592C447.694 136.808 444.586 139.947 442.308 144.01C440.031 148.011 438.892 152.72 438.892 158.136V232H387.926Z" fill="#1F2937"/>
<path d="M555.29 234.585C540.148 234.585 527.099 231.692 516.142 225.906C505.248 220.059 496.846 211.688 490.937 200.793C485.089 189.836 482.165 176.725 482.165 161.46C482.165 146.811 485.12 134.008 491.029 123.051C496.938 112.095 505.278 103.57 516.05 97.4759C526.822 91.3821 539.533 88.3352 554.182 88.3352C564.892 88.3352 574.587 89.9972 583.266 93.321C591.945 96.6449 599.362 101.477 605.517 107.817C611.673 114.095 616.412 121.728 619.736 130.714C623.06 139.701 624.722 149.827 624.722 161.091V172.909H498.046V144.841H577.819C577.757 140.778 576.711 137.208 574.679 134.131C572.71 130.991 570.032 128.56 566.647 126.837C563.323 125.052 559.537 124.159 555.29 124.159C551.166 124.159 547.381 125.052 543.934 126.837C540.487 128.56 537.717 130.961 535.624 134.038C533.593 137.116 532.516 140.717 532.392 144.841V175.125C532.392 179.68 533.347 183.742 535.255 187.312C537.163 190.883 539.902 193.683 543.472 195.714C547.042 197.746 551.351 198.761 556.398 198.761C559.907 198.761 563.107 198.269 566 197.284C568.955 196.299 571.479 194.884 573.571 193.037C575.664 191.129 577.203 188.851 578.188 186.205H624.722C623.122 196.053 619.336 204.609 613.365 211.872C607.395 219.074 599.485 224.675 589.637 228.676C579.85 232.616 568.401 234.585 555.29 234.585Z" fill="#1F2937"/>
<path d="M769.95 136.347H723.047C722.8 133.454 721.785 130.961 720 128.868C718.215 126.775 715.906 125.175 713.075 124.067C710.305 122.897 707.227 122.312 703.842 122.312C699.472 122.312 695.717 123.113 692.578 124.713C689.439 126.313 687.9 128.591 687.961 131.545C687.9 133.638 688.792 135.577 690.639 137.362C692.547 139.147 696.209 140.532 701.626 141.517L730.433 146.688C744.959 149.334 755.762 153.797 762.841 160.075C769.981 166.292 773.582 174.633 773.643 185.097C773.582 195.191 770.565 203.963 764.595 211.411C758.686 218.797 750.591 224.521 740.312 228.584C730.094 232.585 718.43 234.585 705.319 234.585C683.653 234.585 666.695 230.153 654.446 221.29C642.258 212.426 635.457 200.731 634.041 186.205H684.637C685.315 190.698 687.53 194.176 691.285 196.638C695.101 199.038 699.903 200.239 705.689 200.239C710.367 200.239 714.214 199.438 717.23 197.838C720.307 196.238 721.877 193.96 721.939 191.006C721.877 188.297 720.523 186.143 717.876 184.543C715.291 182.942 711.228 181.65 705.689 180.665L680.575 176.233C666.11 173.709 655.277 168.908 648.075 161.83C640.873 154.751 637.303 145.641 637.365 134.5C637.303 124.652 639.888 116.311 645.12 109.479C650.414 102.585 657.954 97.3527 667.741 93.7827C677.59 90.151 689.254 88.3352 702.734 88.3352C723.231 88.3352 739.389 92.5824 751.207 101.077C763.087 109.571 769.334 121.328 769.95 136.347Z" fill="#1F2937"/>
<path d="M879.931 169.955V90.1818H930.897V232H882.516V205.04H881.039C877.961 214.088 872.575 221.167 864.881 226.276C857.187 231.323 848.047 233.847 837.459 233.847C827.549 233.847 818.87 231.569 811.423 227.014C804.036 222.459 798.281 216.181 794.157 208.179C790.094 200.177 788.032 191.006 787.971 180.665V90.1818H838.937V169.955C838.998 176.972 840.783 182.481 844.292 186.482C847.862 190.482 852.848 192.483 859.249 192.483C863.496 192.483 867.159 191.59 870.236 189.805C873.376 187.959 875.776 185.374 877.438 182.05C879.162 178.664 879.993 174.633 879.931 169.955Z" fill="#1F2937"/>
<path d="M951.618 232V90.1818H999.999V117.142H1001.48C1004.43 108.278 1009.48 101.261 1016.62 96.0909C1023.76 90.9204 1032.25 88.3352 1042.1 88.3352C1052.07 88.3352 1060.66 90.982 1067.86 96.2756C1075.06 101.508 1079.4 108.463 1080.88 117.142H1082.36C1084.76 108.463 1089.87 101.508 1097.68 96.2756C1105.5 90.982 1114.67 88.3352 1125.2 88.3352C1138.8 88.3352 1149.82 92.7055 1158.25 101.446C1166.75 110.187 1170.99 121.82 1170.99 136.347V232H1120.03V149.273C1120.03 143.056 1118.46 138.193 1115.32 134.685C1112.18 131.115 1107.96 129.33 1102.67 129.33C1097.44 129.33 1093.28 131.115 1090.21 134.685C1087.19 138.193 1085.68 143.056 1085.68 149.273V232H1036.93V149.273C1036.93 143.056 1035.36 138.193 1032.22 134.685C1029.08 131.115 1024.87 129.33 1019.57 129.33C1016.06 129.33 1013.05 130.13 1010.52 131.73C1008 133.33 1006.03 135.639 1004.62 138.655C1003.26 141.609 1002.58 145.149 1002.58 149.273V232H951.618Z" fill="#1F2937"/>
<path d="M1258.88 234.585C1243.74 234.585 1230.69 231.692 1219.74 225.906C1208.84 220.059 1200.44 211.688 1194.53 200.793C1188.68 189.836 1185.76 176.725 1185.76 161.46C1185.76 146.811 1188.71 134.008 1194.62 123.051C1200.53 112.095 1208.87 103.57 1219.64 97.4759C1230.42 91.3821 1243.13 88.3352 1257.78 88.3352C1268.49 88.3352 1278.18 89.9972 1286.86 93.321C1295.54 96.6449 1302.96 101.477 1309.11 107.817C1315.27 114.095 1320.01 121.728 1323.33 130.714C1326.65 139.701 1328.32 149.827 1328.32 161.091V172.909H1201.64V144.841H1281.41C1281.35 140.778 1280.31 137.208 1278.27 134.131C1276.3 130.991 1273.63 128.56 1270.24 126.837C1266.92 125.052 1263.13 124.159 1258.88 124.159C1254.76 124.159 1250.98 125.052 1247.53 126.837C1244.08 128.56 1241.31 130.961 1239.22 134.038C1237.19 137.116 1236.11 140.717 1235.99 144.841V175.125C1235.99 179.68 1236.94 183.742 1238.85 187.312C1240.76 190.883 1243.5 193.683 1247.07 195.714C1250.64 197.746 1254.95 198.761 1259.99 198.761C1263.5 198.761 1266.7 198.269 1269.59 197.284C1272.55 196.299 1275.07 194.884 1277.17 193.037C1279.26 191.129 1280.8 188.851 1281.78 186.205H1328.32C1326.72 196.053 1322.93 204.609 1316.96 211.872C1310.99 219.074 1303.08 224.675 1293.23 228.676C1283.44 232.616 1272 234.585 1258.88 234.585Z" fill="#1F2937"/>
<path d="M1435.87 169.955V90.1818H1486.84V232H1438.46V205.04H1436.98C1433.9 214.088 1428.52 221.167 1420.82 226.276C1413.13 231.323 1403.99 233.847 1393.4 233.847C1383.49 233.847 1374.81 231.569 1367.37 227.014C1359.98 222.459 1354.22 216.181 1350.1 208.179C1346.04 200.177 1343.98 191.006 1343.91 180.665V90.1818H1394.88V169.955C1394.94 176.972 1396.73 182.481 1400.23 186.482C1403.8 190.482 1408.79 192.483 1415.19 192.483C1419.44 192.483 1423.1 191.59 1426.18 189.805C1429.32 187.959 1431.72 185.374 1433.38 182.05C1435.1 178.664 1435.94 174.633 1435.87 169.955Z" fill="#1F2937"/>
<path d="M1507.56 285.182V90.1818H1558.16V114.926H1559.27C1561.11 110.125 1563.82 105.724 1567.39 101.723C1570.96 97.6605 1575.39 94.429 1580.69 92.0284C1585.98 89.5663 1592.14 88.3352 1599.15 88.3352C1608.51 88.3352 1617.4 90.8281 1625.84 95.8139C1634.33 100.8 1641.22 108.648 1646.52 119.358C1651.87 130.068 1654.55 143.979 1654.55 161.091C1654.55 177.464 1652 191.036 1646.89 201.808C1641.84 212.58 1635.07 220.613 1626.57 225.906C1618.14 231.2 1608.88 233.847 1598.78 233.847C1592.14 233.847 1586.2 232.769 1580.96 230.615C1575.79 228.399 1571.36 225.414 1567.67 221.659C1564.04 217.843 1561.24 213.534 1559.27 208.733H1558.53V285.182H1507.56ZM1557.42 161.091C1557.42 167.985 1558.31 173.955 1560.1 179.003C1561.94 183.989 1564.53 187.866 1567.85 190.636C1571.24 193.345 1575.27 194.699 1579.95 194.699C1584.63 194.699 1588.6 193.375 1591.86 190.729C1595.18 188.02 1597.71 184.173 1599.43 179.188C1601.21 174.14 1602.11 168.108 1602.11 161.091C1602.11 154.074 1601.21 148.072 1599.43 143.087C1597.71 138.039 1595.18 134.192 1591.86 131.545C1588.6 128.837 1584.63 127.483 1579.95 127.483C1575.27 127.483 1571.24 128.837 1567.85 131.545C1564.53 134.192 1561.94 138.039 1560.1 143.087C1558.31 148.072 1557.42 154.074 1557.42 161.091Z" fill="#1F2937"/>
<path d="M1698.4 234.955C1691.26 234.955 1685.14 232.462 1680.03 227.476C1674.98 222.428 1672.49 216.304 1672.55 209.102C1672.49 202.085 1674.98 196.084 1680.03 191.098C1685.14 186.112 1691.26 183.619 1698.4 183.619C1705.17 183.619 1711.14 186.112 1716.31 191.098C1721.54 196.084 1724.19 202.085 1724.25 209.102C1724.19 213.903 1722.93 218.274 1720.47 222.213C1718.07 226.091 1714.93 229.199 1711.05 231.538C1707.17 233.816 1702.96 234.955 1698.4 234.955Z" fill="#1F2937"/>
<path d="M1786.27 234.216C1777.22 234.216 1769.22 232.739 1762.26 229.784C1755.37 226.768 1749.95 222.213 1746.01 216.119C1742.07 210.026 1740.1 202.27 1740.1 192.852C1740.1 185.097 1741.43 178.48 1744.07 173.001C1746.72 167.462 1750.41 162.938 1755.15 159.429C1759.89 155.92 1765.4 153.243 1771.68 151.396C1778.02 149.55 1784.85 148.349 1792.18 147.795C1800.12 147.18 1806.49 146.441 1811.29 145.58C1816.15 144.656 1819.66 143.394 1821.82 141.794C1823.97 140.132 1825.05 137.947 1825.05 135.239V134.869C1825.05 131.176 1823.63 128.345 1820.8 126.375C1817.97 124.405 1814.34 123.42 1809.9 123.42C1805.04 123.42 1801.07 124.498 1797.99 126.652C1794.98 128.745 1793.16 131.976 1792.55 136.347H1745.64C1746.26 127.729 1749 119.789 1753.86 112.526C1758.78 105.201 1765.96 99.3532 1775.37 94.983C1784.79 90.5511 1796.55 88.3352 1810.64 88.3352C1820.8 88.3352 1829.91 89.5355 1837.97 91.9361C1846.04 94.2751 1852.9 97.5682 1858.56 101.815C1864.23 106.001 1868.53 110.925 1871.49 116.588C1874.5 122.189 1876.01 128.283 1876.01 134.869V232H1828.37V212.057H1827.26C1824.43 217.35 1820.98 221.628 1816.92 224.891C1812.92 228.153 1808.34 230.523 1803.16 232C1798.06 233.477 1792.42 234.216 1786.27 234.216ZM1802.89 202.085C1806.77 202.085 1810.4 201.285 1813.78 199.685C1817.23 198.084 1820.03 195.776 1822.18 192.76C1824.34 189.744 1825.42 186.081 1825.42 181.773V169.955C1824.06 170.509 1822.62 171.032 1821.08 171.524C1819.6 172.017 1818 172.478 1816.28 172.909C1814.61 173.34 1812.83 173.74 1810.92 174.109C1809.07 174.479 1807.13 174.817 1805.1 175.125C1801.16 175.741 1797.93 176.756 1795.41 178.172C1792.95 179.526 1791.1 181.219 1789.87 183.25C1788.7 185.22 1788.11 187.436 1788.11 189.898C1788.11 193.837 1789.5 196.853 1792.27 198.946C1795.04 201.039 1798.58 202.085 1802.89 202.085Z" fill="#1F2937"/>
<path d="M1895.16 232V90.1818H1946.13V232H1895.16ZM1920.65 75.4091C1913.75 75.4091 1907.84 73.1316 1902.92 68.5767C1898 64.0218 1895.53 58.5436 1895.53 52.142C1895.53 45.7405 1898 40.2623 1902.92 35.7074C1907.84 31.1525 1913.75 28.875 1920.65 28.875C1927.6 28.875 1933.51 31.1525 1938.37 35.7074C1943.3 40.2623 1945.76 45.7405 1945.76 52.142C1945.76 58.5436 1943.3 64.0218 1938.37 68.5767C1933.51 73.1316 1927.6 75.4091 1920.65 75.4091Z" fill="#1F2937"/>
<defs>
<clipPath id="clip0_311_1125">
<rect width="320" height="320" fill="white"/>
</clipPath>
</defs>
</svg>
