<svg width="16" height="16" viewBox="0 0 16 16" fill="none" xmlns="http://www.w3.org/2000/svg">
<path fill-rule="evenodd" clip-rule="evenodd" d="M0.5 2.97059C0.5 2.71317 0.603207 2.4663 0.786916 2.28428C0.970625 2.10226 1.21979 2 1.47959 2C1.7394 2 1.98856 2.10226 2.17227 2.28428C2.35598 2.4663 2.45918 2.71317 2.45918 2.97059C2.45918 3.228 2.35598 3.47488 2.17227 3.6569C1.98856 3.83892 1.7394 3.94118 1.47959 3.94118C1.21979 3.94118 0.970625 3.83892 0.786916 3.6569C0.603207 3.47488 0.5 3.228 0.5 2.97059ZM4.7449 2.97059C4.7449 2.79898 4.8137 2.6344 4.93617 2.51305C5.05865 2.3917 5.22476 2.32353 5.39796 2.32353H14.8469C15.0201 2.32353 15.1862 2.3917 15.3087 2.51305C15.4312 2.6344 15.5 2.79898 15.5 2.97059C15.5 3.1422 15.4312 3.30678 15.3087 3.42813C15.1862 3.54948 15.0201 3.61765 14.8469 3.61765H5.39796C5.22476 3.61765 5.05865 3.54948 4.93617 3.42813C4.8137 3.30678 4.7449 3.1422 4.7449 2.97059ZM0.5 7.5C0.5 7.24258 0.603207 6.99571 0.786916 6.81369C0.970625 6.63167 1.21979 6.52941 1.47959 6.52941C1.7394 6.52941 1.98856 6.63167 2.17227 6.81369C2.35598 6.99571 2.45918 7.24258 2.45918 7.5C2.45918 7.75742 2.35598 8.00429 2.17227 8.18631C1.98856 8.36833 1.7394 8.47059 1.47959 8.47059C1.21979 8.47059 0.970625 8.36833 0.786916 8.18631C0.603207 8.00429 0.5 7.75742 0.5 7.5ZM4.7449 7.5C4.7449 7.32839 4.8137 7.16381 4.93617 7.04246C5.05865 6.92111 5.22476 6.85294 5.39796 6.85294H14.8469C15.0201 6.85294 15.1862 6.92111 15.3087 7.04246C15.4312 7.16381 15.5 7.32839 15.5 7.5C15.5 7.67161 15.4312 7.83619 15.3087 7.95754C15.1862 8.07889 15.0201 8.14706 14.8469 8.14706H5.39796C5.22476 8.14706 5.05865 8.07889 4.93617 7.95754C4.8137 7.83619 4.7449 7.67161 4.7449 7.5ZM0.5 12.0294C0.5 11.772 0.603207 11.5251 0.786916 11.3431C0.970625 11.1611 1.21979 11.0588 1.47959 11.0588C1.7394 11.0588 1.98856 11.1611 2.17227 11.3431C2.35598 11.5251 2.45918 11.772 2.45918 12.0294C2.45918 12.2868 2.35598 12.5337 2.17227 12.7157C1.98856 12.8977 1.7394 13 1.47959 13C1.21979 13 0.970625 12.8977 0.786916 12.7157C0.603207 12.5337 0.5 12.2868 0.5 12.0294ZM4.7449 12.0294C4.7449 11.8578 4.8137 11.6932 4.93617 11.5719C5.05865 11.4505 5.22476 11.3824 5.39796 11.3824H14.8469C15.0201 11.3824 15.1862 11.4505 15.3087 11.5719C15.4312 11.6932 15.5 11.8578 15.5 12.0294C15.5 12.201 15.4312 12.3656 15.3087 12.487C15.1862 12.6083 15.0201 12.6765 14.8469 12.6765H5.39796C5.22476 12.6765 5.05865 12.6083 4.93617 12.487C4.8137 12.3656 4.7449 12.201 4.7449 12.0294Z" fill="#1F2937" stroke="#1F2937" stroke-width="0.5"/>
</svg>
