<svg width="16" height="17" viewBox="0 0 16 17" fill="none" xmlns="http://www.w3.org/2000/svg">
<path d="M10.6829 6.73294H14.0109L11.8902 4.61094C11.2075 3.92818 10.357 3.4372 9.42438 3.18734C8.49171 2.93748 7.50971 2.93755 6.57708 3.18755C5.64445 3.43755 4.79408 3.92866 4.11143 4.61152C3.42879 5.29437 2.93794 6.1449 2.68823 7.0776M1.9909 13.5969V10.2689M1.9909 10.2689H5.3189M1.9909 10.2689L4.1109 12.3909C4.79364 13.0737 5.6441 13.5647 6.57676 13.8145C7.50942 14.0644 8.49143 14.0643 9.42405 13.8143C10.3567 13.5643 11.2071 13.0732 11.8897 12.3904C12.5723 11.7075 13.0632 10.857 13.3129 9.92427M14.0109 3.40494V6.7316" stroke="#4C545F" stroke-width="1.2" stroke-linecap="round" stroke-linejoin="round"/>
</svg>
