<svg width="18" height="22" viewBox="0 0 18 22" fill="none" xmlns="http://www.w3.org/2000/svg">
<path d="M6.66667 11.5833L8.41667 13.3333L11.3333 9.25M16 11C16 11.9193 15.8189 12.8295 15.4672 13.6788C15.1154 14.5281 14.5998 15.2997 13.9497 15.9497C13.2997 16.5998 12.5281 17.1154 11.6788 17.4672C10.8295 17.8189 9.91925 18 9 18C8.08075 18 7.1705 17.8189 6.32122 17.4672C5.47194 17.1154 4.70026 16.5998 4.05025 15.9497C3.40024 15.2997 2.88463 14.5281 2.53284 13.6788C2.18106 12.8295 2 11.9193 2 11C2 9.14348 2.7375 7.36301 4.05025 6.05025C5.36301 4.7375 7.14348 4 9 4C10.8565 4 12.637 4.7375 13.9497 6.05025C15.2625 7.36301 16 9.14348 16 11Z" stroke="#16A34A" stroke-width="1.4" stroke-linecap="round" stroke-linejoin="round"/>
</svg>
