<svg width="18" height="22" viewBox="0 0 18 22" fill="none" xmlns="http://www.w3.org/2000/svg">
<path d="M9.0004 16.1582V11.9711M9.0004 11.9711C9.40517 11.9714 9.80836 11.9207 10.2004 11.8203M9.0004 11.9711C8.59563 11.9714 8.19244 11.9207 7.8004 11.8203M10.8004 18.8311C9.61103 19.0563 8.38977 19.0563 7.2004 18.8311M10.8004 16.1582V16.0051C10.8004 15.2211 11.3268 14.5511 12.0068 14.1579C13.1492 13.4984 14.0415 12.4817 14.5455 11.2653C15.0495 10.0489 15.137 8.70071 14.7945 7.42969C14.452 6.15866 13.6986 5.03573 12.651 4.23489C11.6034 3.43405 10.3201 3 9 3C7.67987 3 6.39659 3.43405 5.34899 4.23489C4.3014 5.03573 3.54797 6.15866 3.20546 7.42969C2.86295 8.70071 2.95048 10.0489 3.45447 11.2653C3.95847 12.4817 4.8508 13.4984 5.9932 14.1579C6.6732 14.5511 7.2004 15.2211 7.2004 16.0051V16.1582" stroke="#F0A410" stroke-width="1.4" stroke-linecap="round" stroke-linejoin="round"/>
</svg>
